<svg xmlns="http://www.w3.org/2000/svg" xmlns:xlink="http://www.w3.org/1999/xlink" version="1.1" id="Capa_1" x="0" y="0" viewBox="0 0 512.002 512.002" xml:space="preserve" enable-background="new -290 382 30 30"><style type="text/css">
	.st0{fill:#FFF;}
</style><path class="st0" d="M-275 382c-8.3 0-15 6.7-15 15s6.7 15 15 15 15-6.7 15-15S-266.7 382-275 382zM-266.5 392.7c0 0.2 0 0.4 0 0.6 0 5.8-4.4 12.4-12.4 12.4 -2.5 0-4.8-0.7-6.7-2 0.3 0 0.7 0.1 1 0.1 2 0 3.9-0.7 5.4-1.9 -1.9 0-3.5-1.3-4.1-3 0.3 0.1 0.5 0.1 0.8 0.1 0.4 0 0.8-0.1 1.2-0.2 -2-0.4-3.5-2.2-3.5-4.3 0 0 0 0 0-0.1 0.6 0.3 1.3 0.5 2 0.5 -1.2-0.8-1.9-2.1-1.9-3.6 0-0.8 0.2-1.6 0.6-2.2 2.2 2.6 5.4 4.4 9 4.6 -0.1-0.3-0.1-0.7-0.1-1 0-2.4 2-4.4 4.4-4.4 1.3 0 2.4 0.5 3.2 1.4 1-0.2 1.9-0.6 2.8-1.1 -0.3 1-1 1.9-1.9 2.4 0.9-0.1 1.7-0.3 2.5-0.7C-264.9 391.3-265.7 392-266.5 392.7z"/></svg>